<svg xmlns="http://www.w3.org/2000/svg" viewBox="0 0 99 99"><defs><style>.cls-1{fill:none;stroke:#fff;stroke-miterlimit:10;stroke-width:3px;}.cls-2{fill:#fff;}</style></defs><title>record_off</title><g id="Layer_2" data-name="Layer 2"><g id="Layer_1-2" data-name="Layer 1"><circle class="cls-1" cx="49.5" cy="49.5" r="48"/><path class="cls-2" d="M52,67.06V69.7l.66,0c1.44,0,2.88,0,4.32,0a2.5,2.5,0,1,1,0,5h-15a2.5,2.5,0,1,1,0-5c1.5,0,3,0,4.5,0,.48,0,.62-.15.59-.61,0-.69,0-1.37,0-2.06-.89-.19-1.72-.33-2.54-.54A20.1,20.1,0,0,1,29.49,49.59a42.29,42.29,0,0,1-.19-5.14,2.48,2.48,0,0,1,2.58-2.52,2.52,2.52,0,0,1,2.44,2.66,23.5,23.5,0,0,0,.55,6.46,15.16,15.16,0,0,0,29.59-1.9,40.89,40.89,0,0,0,.17-4.66A2.53,2.53,0,0,1,67,41.95a2.47,2.47,0,0,1,2.64,2.33c.29,4.91-.47,9.6-3.29,13.77a20,20,0,0,1-13.74,8.88l-.35.07Z"/><path class="cls-2" d="M59.55,40.67q0,3.14,0,6.27a10.08,10.08,0,0,1-20.09,1.22,19.75,19.75,0,0,1-.06-2.36c0-3.81,0-7.61,0-11.42A10.07,10.07,0,0,1,59.54,34c.06,2.23,0,4.46,0,6.69Zm-5,0q0-1.51,0-3c0-1,0-2.05,0-3.08a6.78,6.78,0,0,0-.17-1.46,5,5,0,0,0-10,1.24c0,4.2,0,8.4,0,12.6a5,5,0,0,0,.75,2.64A5.06,5.06,0,0,0,54.54,47C54.57,44.87,54.55,42.78,54.55,40.69Z"/></g></g></svg>